<svg width="130" height="116" viewBox="0 0 130 116" fill="none" xmlns="http://www.w3.org/2000/svg">
<g clip-path="url(#clip0_4_14)" filter="url(#filter0_d_4_14)">
<path d="M48.0384 103.325C50.3855 102.696 52.5449 101.794 54.5169 100.618C56.4876 99.4386 57.844 98.0999 58.5862 96.6022L87.2917 44.9878L105.27 55.7559C106.662 56.6819 108.506 57.163 110.803 57.1994C113.098 57.2314 115.419 56.9329 117.766 56.304L194.578 35.7223L191.036 22.5027L122.225 40.9406L94.0316 24.0541C92.6401 23.1282 90.8108 22.7021 88.5437 22.7759C86.2778 22.8541 83.9713 23.2076 81.6243 23.8365C79.2772 24.4654 77.103 25.3124 75.1016 26.3777C73.1013 27.4473 71.7301 28.731 70.988 30.2286L42.2824 81.8431L24.3038 71.0749C22.9123 70.149 21.0682 69.6679 18.7716 69.6315C16.4762 69.5995 14.1549 69.8979 11.8079 70.5268L-65.0042 91.1086L-61.4621 104.328L7.3488 85.8903L35.5425 102.777C36.9341 103.703 38.7781 104.184 41.0748 104.22C43.3702 104.252 45.6914 103.954 48.0384 103.325Z" fill="#187498"/>
</g>
<path d="M55.6782 18.2429C59.2678 13.2212 66.7322 13.2212 70.3218 18.2429L109.117 72.5163C113.375 78.4728 109.117 86.75 101.795 86.75H24.2046C16.8828 86.75 12.625 78.4728 16.8828 72.5163L55.6782 18.2429Z" fill="#F9D923" stroke="white"/>
<path d="M37.2017 71V52.8182H48.1747V54.7713H39.4034V60.9148H47.6065V62.8679H39.4034V69.0469H48.3168V71H37.2017ZM59.6715 60.9325V62.8857H51.717V60.9325H59.6715ZM63.6421 71V52.8182H69.7856C71.2061 52.8182 72.372 53.0608 73.2835 53.5462C74.1949 54.0256 74.8696 54.6855 75.3076 55.5259C75.7456 56.3664 75.9646 57.3222 75.9646 58.3935C75.9646 59.4647 75.7456 60.4147 75.3076 61.2433C74.8696 62.0719 74.1979 62.7229 73.2923 63.1964C72.3868 63.6639 71.2297 63.8977 69.8211 63.8977H64.8495V61.9091H69.7501C70.7207 61.9091 71.502 61.767 72.0938 61.483C72.6916 61.1989 73.1237 60.7964 73.39 60.2756C73.6623 59.7488 73.7984 59.1214 73.7984 58.3935C73.7984 57.6655 73.6623 57.0292 73.39 56.4847C73.1178 55.9402 72.6827 55.52 72.085 55.2241C71.4872 54.9222 70.6971 54.7713 69.7146 54.7713H65.8438V71H63.6421ZM72.2004 62.8324L76.6748 71H74.118L69.7146 62.8324H72.2004ZM80.3791 71H78.0708L84.747 52.8182H87.0197L93.6958 71H91.3876L85.9544 55.6946H85.8123L80.3791 71ZM81.2314 63.8977H90.5353V65.8509H81.2314V63.8977Z" fill="#36AE7C"/>
<path d="M37.2017 71H36.7017V71.5H37.2017V71ZM37.2017 52.8182V52.3182H36.7017V52.8182H37.2017ZM48.1747 52.8182H48.6747V52.3182H48.1747V52.8182ZM48.1747 54.7713V55.2713H48.6747V54.7713H48.1747ZM39.4034 54.7713V54.2713H38.9034V54.7713H39.4034ZM39.4034 60.9148H38.9034V61.4148H39.4034V60.9148ZM47.6065 60.9148H48.1065V60.4148H47.6065V60.9148ZM47.6065 62.8679V63.3679H48.1065V62.8679H47.6065ZM39.4034 62.8679V62.3679H38.9034V62.8679H39.4034ZM39.4034 69.0469H38.9034V69.5469H39.4034V69.0469ZM48.3168 69.0469H48.8168V68.5469H48.3168V69.0469ZM48.3168 71V71.5H48.8168V71H48.3168ZM37.7017 71V52.8182H36.7017V71H37.7017ZM37.2017 53.3182H48.1747V52.3182H37.2017V53.3182ZM47.6747 52.8182V54.7713H48.6747V52.8182H47.6747ZM48.1747 54.2713H39.4034V55.2713H48.1747V54.2713ZM38.9034 54.7713V60.9148H39.9034V54.7713H38.9034ZM39.4034 61.4148H47.6065V60.4148H39.4034V61.4148ZM47.1065 60.9148V62.8679H48.1065V60.9148H47.1065ZM47.6065 62.3679H39.4034V63.3679H47.6065V62.3679ZM38.9034 62.8679V69.0469H39.9034V62.8679H38.9034ZM39.4034 69.5469H48.3168V68.5469H39.4034V69.5469ZM47.8168 69.0469V71H48.8168V69.0469H47.8168ZM48.3168 70.5H37.2017V71.5H48.3168V70.5ZM59.6715 60.9325H60.1715V60.4325H59.6715V60.9325ZM59.6715 62.8857V63.3857H60.1715V62.8857H59.6715ZM51.717 62.8857H51.217V63.3857H51.717V62.8857ZM51.717 60.9325V60.4325H51.217V60.9325H51.717ZM59.1715 60.9325V62.8857H60.1715V60.9325H59.1715ZM59.6715 62.3857H51.717V63.3857H59.6715V62.3857ZM52.217 62.8857V60.9325H51.217V62.8857H52.217ZM51.717 61.4325H59.6715V60.4325H51.717V61.4325ZM63.6421 71H63.1421V71.5H63.6421V71ZM63.6421 52.8182V52.3182H63.1421V52.8182H63.6421ZM73.2835 53.5462L73.0485 53.9875L73.0507 53.9887L73.2835 53.5462ZM75.3076 55.5259L74.8642 55.757L74.8642 55.757L75.3076 55.5259ZM75.3076 61.2433L74.8656 61.0096L74.8656 61.0096L75.3076 61.2433ZM73.2923 63.1964L73.5217 63.6407L73.524 63.6395L73.2923 63.1964ZM64.8495 63.8977H64.3495V64.3977H64.8495V63.8977ZM64.8495 61.9091V61.4091H64.3495V61.9091H64.8495ZM72.0938 61.483L71.8792 61.0314L71.8775 61.0322L72.0938 61.483ZM73.39 60.2756L72.9458 60.046L72.9448 60.0479L73.39 60.2756ZM72.085 55.2241L71.8596 55.6704L71.8631 55.6722L72.085 55.2241ZM65.8438 54.7713V54.2713H65.3438V54.7713H65.8438ZM65.8438 71V71.5H66.3438V71H65.8438ZM72.2004 62.8324L72.6389 62.5922L72.4966 62.3324H72.2004V62.8324ZM76.6748 71V71.5H77.5188L77.1133 70.7598L76.6748 71ZM74.118 71L73.6779 71.2373L73.8195 71.5H74.118V71ZM69.7146 62.8324V62.3324H68.877L69.2745 63.0697L69.7146 62.8324ZM64.1421 71V52.8182H63.1421V71H64.1421ZM63.6421 53.3182H69.7856V52.3182H63.6421V53.3182ZM69.7856 53.3182C71.1533 53.3182 72.2314 53.5524 73.0485 53.9875L73.5185 53.1048C72.5126 52.5693 71.2588 52.3182 69.7856 52.3182V53.3182ZM73.0507 53.9887C73.8803 54.425 74.4774 55.0147 74.8642 55.757L75.751 55.2949C75.2619 54.3563 74.5096 53.6261 73.5162 53.1036L73.0507 53.9887ZM74.8642 55.757C75.2604 56.5172 75.4646 57.3921 75.4646 58.3935H76.4646C76.4646 57.2524 76.2308 56.2155 75.751 55.2949L74.8642 55.757ZM75.4646 58.3935C75.4646 59.395 75.2604 60.2627 74.8656 61.0096L75.7497 61.4769C76.2308 60.5666 76.4646 59.5344 76.4646 58.3935H75.4646ZM74.8656 61.0096C74.4792 61.7406 73.885 62.3223 73.0607 62.7533L73.524 63.6395C74.5108 63.1235 75.2601 62.4031 75.7497 61.4769L74.8656 61.0096ZM73.063 62.7521C72.2502 63.1718 71.1788 63.3977 69.8211 63.3977V64.3977C71.2807 64.3977 72.5234 64.1561 73.5217 63.6406L73.063 62.7521ZM69.8211 63.3977H64.8495V64.3977H69.8211V63.3977ZM65.3495 63.8977V61.9091H64.3495V63.8977H65.3495ZM64.8495 62.4091H69.7501V61.4091H64.8495V62.4091ZM69.7501 62.4091C70.7627 62.4091 71.6264 62.262 72.3102 61.9337L71.8775 61.0322C71.3776 61.2721 70.6787 61.4091 69.7501 61.4091V62.4091ZM72.3085 61.9345C72.9919 61.6097 73.5122 61.1347 73.8352 60.5032L72.9448 60.0479C72.7351 60.4581 72.3913 60.788 71.8792 61.0314L72.3085 61.9345ZM73.8342 60.5051C74.1505 59.8931 74.2984 59.1834 74.2984 58.3935H73.2984C73.2984 59.0595 73.174 59.6046 72.9458 60.046L73.8342 60.5051ZM74.2984 58.3935C74.2984 57.6029 74.1503 56.8874 73.8372 56.2611L72.9428 56.7083C73.1742 57.1711 73.2984 57.728 73.2984 58.3935H74.2984ZM73.8372 56.2611C73.5116 55.6098 72.9923 55.1153 72.3068 54.776L71.8631 55.6722C72.3732 55.9247 72.7239 56.2706 72.9428 56.7083L73.8372 56.2611ZM72.3103 54.7778C71.6177 54.428 70.7416 54.2713 69.7146 54.2713V55.2713C70.6526 55.2713 71.3566 55.4164 71.8596 55.6704L72.3103 54.7778ZM69.7146 54.2713H65.8438V55.2713H69.7146V54.2713ZM65.3438 54.7713V71H66.3438V54.7713H65.3438ZM65.8438 70.5H63.6421V71.5H65.8438V70.5ZM71.7619 63.0726L76.2363 71.2402L77.1133 70.7598L72.6389 62.5922L71.7619 63.0726ZM76.6748 70.5H74.118V71.5H76.6748V70.5ZM74.5581 70.7627L70.1547 62.5951L69.2745 63.0697L73.6779 71.2373L74.5581 70.7627ZM69.7146 63.3324H72.2004V62.3324H69.7146V63.3324ZM80.3791 71V71.5H80.7322L80.8503 71.1673L80.3791 71ZM78.0708 71L77.6015 70.8277L77.3546 71.5H78.0708V71ZM84.747 52.8182V52.3182H84.3979L84.2776 52.6458L84.747 52.8182ZM87.0197 52.8182L87.4891 52.6458L87.3688 52.3182H87.0197V52.8182ZM93.6958 71V71.5H94.4121L94.1652 70.8277L93.6958 71ZM91.3876 71L90.9164 71.1673L91.0345 71.5H91.3876V71ZM85.9544 55.6946L86.4256 55.5273L86.3074 55.1946H85.9544V55.6946ZM85.8123 55.6946V55.1946H85.4592L85.3411 55.5273L85.8123 55.6946ZM81.2314 63.8977V63.3977H80.7314V63.8977H81.2314ZM90.5353 63.8977H91.0353V63.3977H90.5353V63.8977ZM90.5353 65.8509V66.3509H91.0353V65.8509H90.5353ZM81.2314 65.8509H80.7314V66.3509H81.2314V65.8509ZM80.3791 70.5H78.0708V71.5H80.3791V70.5ZM78.5402 71.1723L85.2163 52.9905L84.2776 52.6458L77.6015 70.8277L78.5402 71.1723ZM84.747 53.3182H87.0197V52.3182H84.747V53.3182ZM86.5504 52.9905L93.2265 71.1723L94.1652 70.8277L87.4891 52.6458L86.5504 52.9905ZM93.6958 70.5H91.3876V71.5H93.6958V70.5ZM91.8588 70.8327L86.4256 55.5273L85.4832 55.8619L90.9164 71.1673L91.8588 70.8327ZM85.9544 55.1946H85.8123V56.1946H85.9544V55.1946ZM85.3411 55.5273L79.9079 70.8327L80.8503 71.1673L86.2835 55.8619L85.3411 55.5273ZM81.2314 64.3977H90.5353V63.3977H81.2314V64.3977ZM90.0353 63.8977V65.8509H91.0353V63.8977H90.0353ZM90.5353 65.3509H81.2314V66.3509H90.5353V65.3509ZM81.7314 65.8509V63.8977H80.7314V65.8509H81.7314Z" fill="#36AE7C"/>
<defs>
<filter id="filter0_d_4_14" x="2" y="0" width="118" height="111" filterUnits="userSpaceOnUse" color-interpolation-filters="sRGB">
<feFlood flood-opacity="0" result="BackgroundImageFix"/>
<feColorMatrix in="SourceAlpha" type="matrix" values="0 0 0 0 0 0 0 0 0 0 0 0 0 0 0 0 0 0 127 0" result="hardAlpha"/>
<feOffset dy="4"/>
<feGaussianBlur stdDeviation="2"/>
<feComposite in2="hardAlpha" operator="out"/>
<feColorMatrix type="matrix" values="0 0 0 0 0 0 0 0 0 0 0 0 0 0 0 0 0 0 0.25 0"/>
<feBlend mode="normal" in2="BackgroundImageFix" result="effect1_dropShadow_4_14"/>
<feBlend mode="normal" in="SourceGraphic" in2="effect1_dropShadow_4_14" result="shape"/>
</filter>
<clipPath id="clip0_4_14">
<rect width="110" height="103" fill="white" transform="translate(6)"/>
</clipPath>
</defs>
</svg>
