<svg width="73" height="88" viewBox="0 0 73 88" fill="none" xmlns="http://www.w3.org/2000/svg">
<path d="M27.4727 78.0206C24.6122 79.1099 20.6076 81.9421 27.4727 84.5565C34.3377 87.1708 41.5547 85.6458 44.3051 84.5565C47.2756 83.4672 51.4342 80.635 44.3051 78.0206" stroke="#36AE7C" stroke-width="3" stroke-linecap="round"/>
<path d="M42.4787 75.3582C39.7918 80.0624 33.009 80.0624 30.322 75.3582L10.8579 41.2811C8.19248 36.6145 11.5621 30.8093 16.9363 30.8093L55.8644 30.8093C61.2386 30.8093 64.6082 36.6145 61.9428 41.2811L42.4787 75.3582Z" fill="#36AE7C"/>
<ellipse cx="36.4004" cy="28.8144" rx="28.5064" ry="28.8144" fill="#36AE7C"/>
<ellipse cx="35.9617" cy="28.3711" rx="23.6822" ry="23.9381" fill="#2E519E"/>
<rect x="42.9788" y="23.9382" width="7.89407" height="14.1856" rx="1" fill="white"/>
<path d="M46.7618 20.2834L52.5318 24.0717C52.9469 24.3442 52.7539 24.9897 52.2574 24.9897H40.7173C40.2207 24.9897 40.0278 24.3442 40.4429 24.0717L46.2129 20.2834C46.3795 20.174 46.5952 20.174 46.7618 20.2834Z" fill="white" stroke="white"/>
<path d="M46.7394 22.0043L52.1571 25.1661C52.5979 25.4233 52.4154 26.0979 51.9051 26.0979H41.0696C40.5593 26.0979 40.3768 25.4233 40.8176 25.1661L46.2353 22.0043C46.391 21.9134 46.5836 21.9134 46.7394 22.0043Z" stroke="#2E519E"/>
<path d="M34.0484 15.863L45.5853 23.6316C45.9946 23.9073 45.7995 24.5464 45.306 24.5464H22.2322C21.7387 24.5464 21.5436 23.9073 21.9529 23.6316L33.4898 15.863C33.6587 15.7493 33.8795 15.7493 34.0484 15.863Z" fill="white" stroke="white"/>
<rect x="24.5593" y="22.165" width="17.5424" height="15.9588" rx="1" fill="white"/>
<path d="M34.0484 18.5228L45.5853 26.2914C45.9946 26.5671 45.7995 27.2062 45.306 27.2062H22.2322C21.7387 27.2062 21.5436 26.5671 21.9529 26.2914L33.4898 18.5228C33.6587 18.4091 33.8795 18.4091 34.0484 18.5228Z" stroke="#2E519E"/>
<rect x="24.5593" y="24.8248" width="17.5424" height="12.4124" fill="white"/>
<rect x="35.9619" y="25.7114" width="3.50847" height="2.65979" rx="1" fill="#2E519E"/>
<rect x="43.856" y="28.3712" width="5.26271" height="3.54639" fill="white"/>
<rect x="42.9788" y="24.8248" width="7.89407" height="3.54639" fill="white"/>
<rect x="45.6101" y="28.3712" width="3.50847" height="2.65979" rx="1" fill="#2E519E"/>
<rect x="30.6992" y="31.9175" width="3.50847" height="6.20619" rx="1" fill="#2E519E"/>
<rect x="30.6992" y="35.4639" width="3.50847" height="2.65979" fill="#2E519E"/>
</svg>
