<svg width="73" height="88" viewBox="0 0 73 88" fill="none" xmlns="http://www.w3.org/2000/svg">
<path d="M28.7042 78C25.9089 79.0921 21.9955 81.9317 28.7042 84.5528C35.4129 87.1739 42.4656 85.6449 45.1533 84.5528C48.0561 83.4606 52.12 80.6211 45.1533 78" stroke="#F9D923" stroke-width="3" stroke-linecap="round"/>
<path d="M28.7042 78C25.9089 79.0921 21.9955 81.9317 28.7042 84.5528C35.4129 87.1739 42.4656 85.6449 45.1533 84.5528C48.0561 83.4606 52.12 80.6211 45.1533 78" stroke="#F9D923" stroke-width="3" stroke-linecap="round"/>
<path d="M42.6779 75.3582C39.991 80.0624 33.2082 80.0624 30.5212 75.3582L11.0572 41.2811C8.3917 36.6145 11.7613 30.8093 17.1355 30.8093L56.0636 30.8093C61.4378 30.8093 64.8075 36.6145 62.142 41.2811L42.6779 75.3582Z" fill="#F9D923"/>
<ellipse cx="36.5996" cy="28.8144" rx="28.5064" ry="28.8144" fill="#F9D923"/>
<circle cx="37" cy="28" r="24" fill="#2E519E"/>
<rect x="43.178" y="23.9381" width="7.89407" height="14.1856" rx="1" fill="white"/>
<path d="M46.961 20.2834L52.731 24.0717C53.1461 24.3442 52.9532 24.9897 52.4566 24.9897H40.9165C40.42 24.9897 40.227 24.3442 40.6421 24.0717L46.4121 20.2834C46.5787 20.174 46.7944 20.174 46.961 20.2834Z" fill="white" stroke="white"/>
<path d="M46.9386 22.0043L52.3563 25.1661C52.7971 25.4233 52.6146 26.0979 52.1043 26.0979H41.2688C40.7585 26.0979 40.576 25.4233 41.0168 25.1661L46.4345 22.0043C46.5903 21.9134 46.7829 21.9134 46.9386 22.0043Z" stroke="#2E519E"/>
<path d="M34.2476 15.863L45.7845 23.6316C46.1939 23.9073 45.9987 24.5464 45.5052 24.5464H22.4314C21.9379 24.5464 21.7428 23.9073 22.1521 23.6316L33.689 15.863C33.8579 15.7493 34.0788 15.7493 34.2476 15.863Z" fill="white" stroke="white"/>
<rect x="24.7585" y="22.1649" width="17.5424" height="15.9588" rx="1" fill="white"/>
<path d="M34.2476 18.5228L45.7845 26.2914C46.1939 26.5671 45.9987 27.2062 45.5052 27.2062H22.4314C21.9379 27.2062 21.7428 26.5671 22.1521 26.2914L33.689 18.5228C33.8579 18.4091 34.0788 18.4091 34.2476 18.5228Z" stroke="#2E519E"/>
<rect x="24.7585" y="24.8247" width="17.5424" height="12.4124" fill="white"/>
<rect x="36.1611" y="25.7113" width="3.50847" height="2.65979" rx="1" fill="#2E519E"/>
<rect x="44.0552" y="28.3711" width="5.26271" height="3.54639" fill="white"/>
<rect x="43.178" y="24.8247" width="7.89407" height="3.54639" fill="white"/>
<rect x="45.8093" y="28.3711" width="3.50847" height="2.65979" rx="1" fill="#2E519E"/>
<rect x="30.8984" y="31.9175" width="3.50847" height="6.20619" rx="1" fill="#2E519E"/>
<rect x="30.8984" y="35.4639" width="3.50847" height="2.65979" fill="#2E519E"/>
</svg>
