<svg width="74" height="88" viewBox="0 0 74 88" fill="none" xmlns="http://www.w3.org/2000/svg">
<path d="M43.3855 75.3582C40.6985 80.0624 33.9157 80.0624 31.2287 75.3582L11.7647 41.2811C9.09922 36.6145 12.4689 30.8093 17.843 30.8093L56.7712 30.8093C62.1453 30.8093 65.515 36.6145 62.8495 41.2811L43.3855 75.3582Z" fill="#EB5353"/>
<ellipse cx="37.3071" cy="28.8144" rx="28.5064" ry="28.8144" fill="#EB5353"/>
<ellipse cx="37.5" cy="28" rx="23.5" ry="24" fill="#2E519E"/>
<path d="M28.8585 78C25.9468 79.0921 21.8703 81.9317 28.8585 84.5528C35.8467 87.1739 43.1933 85.6449 45.9931 84.5528C49.0168 83.4606 53.25 80.6211 45.9931 78" stroke="#EB5353" stroke-width="3" stroke-linecap="round"/>
<rect x="43.8855" y="23.9381" width="7.89407" height="14.1856" rx="1" fill="white"/>
<path d="M47.6685 20.2834L53.4386 24.0717C53.8536 24.3442 53.6607 24.9897 53.1641 24.9897H41.624C41.1275 24.9897 40.9345 24.3442 41.3496 24.0717L47.1197 20.2834C47.2863 20.174 47.5019 20.174 47.6685 20.2834Z" fill="white" stroke="white"/>
<path d="M47.6461 22.0043L53.0639 25.1661C53.5046 25.4233 53.3222 26.0979 52.8118 26.0979H41.9763C41.466 26.0979 41.2835 25.4233 41.7243 25.1661L47.1421 22.0043C47.2978 21.9134 47.4904 21.9134 47.6461 22.0043Z" stroke="#2E519E"/>
<path d="M34.9551 15.863L46.492 23.6316C46.9014 23.9073 46.7063 24.5464 46.2127 24.5464H23.1389C22.6454 24.5464 22.4503 23.9073 22.8597 23.6316L34.3966 15.863C34.5654 15.7493 34.7863 15.7493 34.9551 15.863Z" fill="white" stroke="white"/>
<rect x="25.4661" y="22.1649" width="17.5424" height="15.9588" rx="1" fill="white"/>
<path d="M34.9551 18.5228L46.492 26.2914C46.9014 26.5671 46.7063 27.2062 46.2127 27.2062H23.1389C22.6454 27.2062 22.4503 26.5671 22.8597 26.2914L34.3966 18.5228C34.5654 18.4091 34.7863 18.4091 34.9551 18.5228Z" stroke="#2E519E"/>
<rect x="25.4661" y="24.8247" width="17.5424" height="12.4124" fill="white"/>
<rect x="36.8687" y="25.7113" width="3.50847" height="2.65979" rx="1" fill="#2E519E"/>
<rect x="44.7627" y="28.3711" width="5.26271" height="3.54639" fill="white"/>
<rect x="43.8855" y="24.8247" width="7.89407" height="3.54639" fill="white"/>
<rect x="46.5168" y="28.3711" width="3.50847" height="2.65979" rx="1" fill="#2E519E"/>
<rect x="31.606" y="31.9175" width="3.50847" height="6.20619" rx="1" fill="#2E519E"/>
<rect x="31.606" y="35.4639" width="3.50847" height="2.65979" fill="#2E519E"/>
</svg>
